<svg width="240" height="260" viewBox="0 0 240 260" fill="none" xmlns="http://www.w3.org/2000/svg">
<path fill-rule="evenodd" clip-rule="evenodd" d="M107.618 209.106H105.505C105.157 210.62 104.104 211.376 102.347 211.376C101.02 211.376 100.026 210.919 99.3626 210.004C98.6995 209.089 98.3679 207.942 98.3679 206.561C98.3679 205.197 98.6912 204.075 99.3378 203.193C100.001 202.295 101.004 201.846 102.347 201.846C103.955 201.846 104.983 202.553 105.43 203.967H107.544C107.328 202.769 106.765 201.813 105.853 201.098C104.958 200.366 103.789 200 102.347 200C100.44 200 98.9482 200.615 97.8706 201.846C96.793 203.077 96.2542 204.665 96.2542 206.611C96.2542 208.541 96.793 210.129 97.8706 211.376C98.9648 212.607 100.457 213.222 102.347 213.222C103.772 213.222 104.941 212.857 105.853 212.125C106.781 211.376 107.37 210.37 107.618 209.106ZM69.484 212.898H66.5V200.324H68.5639V210.054H69.111L74.6066 200.324H77.6901V212.898H75.6261V203.168H75.0791L69.484 212.898ZM92.94 212.898H90.8263V207.36H83.8884V212.898H81.7747V200.324H83.8884V205.513H90.8263V200.324H92.94V212.898ZM109.477 202.17V200.324H120.269V202.17H115.942V212.898H113.829V202.17H109.477ZM123.058 212.898H126.042L131.637 203.168H132.184V212.898H134.248V200.324H131.164L125.669 210.054H125.122V200.324H123.058V212.898ZM137.039 202.17V200.324H147.832V202.17H143.505V212.898H141.391V202.17H137.039ZM151.864 217.888H154.002L161.512 200.324H159.299L155.817 208.607H155.196L151.366 200.324H149.103L154.45 211.726L151.864 217.888ZM162.708 202.17V200.324H173.5V202.17H169.173V212.898H167.059V202.17H162.708ZM14.4156 225.26C15.5259 224.012 17.034 223.389 18.9397 223.389C20.8455 223.389 22.3453 224.012 23.439 225.26C24.5493 226.507 25.1045 228.087 25.1045 230C25.1045 231.913 24.5493 233.493 23.439 234.74C22.3453 235.987 20.8455 236.611 18.9397 236.611C17.034 236.611 15.5259 235.987 14.4156 234.74C13.3219 233.493 12.775 231.913 12.775 230C12.775 228.087 13.3219 226.507 14.4156 225.26ZM15.9319 233.393C16.628 234.308 17.6306 234.765 18.9397 234.765C20.2489 234.765 21.2515 234.308 21.9475 233.393C22.6436 232.461 22.9916 231.33 22.9916 230C22.9916 228.669 22.6436 227.547 21.9475 226.632C21.2515 225.701 20.2489 225.235 18.9397 225.235C17.6306 225.235 16.628 225.701 15.9319 226.632C15.2359 227.547 14.8879 228.669 14.8879 230C14.8879 231.33 15.2359 232.461 15.9319 233.393ZM8.65053 236.287L5.86645 230.748H2.11292V236.287H0V223.713H2.11292V228.902H5.91617L8.52624 223.713H10.7386L7.68108 229.775L10.9126 236.287H8.65053ZM28.402 223.713V236.287H30.4652V226.183H31.0121L33.9205 231.572H36.2571L39.1655 226.183H39.7123V236.287H41.7756V223.713H38.4695L35.3871 229.451H34.8402L31.7578 223.713H28.402ZM56.9177 236.287H54.8048V225.559H47.9688V236.287H45.8559V223.713H56.9177V236.287ZM63.1166 227.904V223.713H61.0037V236.287H66.8204C68.3285 236.287 69.4885 235.921 70.3005 235.189C71.1291 234.441 71.5434 233.401 71.5434 232.071C71.5434 230.757 71.1291 229.734 70.3005 229.002C69.4885 228.27 68.3285 227.904 66.8204 227.904H63.1166ZM66.5221 234.441H63.1166V229.701H66.5221C67.5662 229.701 68.3119 229.9 68.7593 230.299C69.2068 230.698 69.4305 231.289 69.4305 232.071C69.4305 232.852 69.2068 233.443 68.7593 233.842C68.3119 234.241 67.5662 234.441 66.5221 234.441ZM85.5116 223.389C87.3676 223.389 88.8425 224.021 89.9363 225.285C91.03 226.532 91.5769 228.104 91.5769 230C91.5769 231.896 91.03 233.476 89.9363 234.74C88.8425 235.987 87.3676 236.611 85.5116 236.611C83.7881 236.611 82.3878 236.062 81.3106 234.965C80.25 233.867 79.6451 232.461 79.496 230.748H76.6373V236.287H74.5493V223.713H76.6373V228.902H79.5706C79.7694 227.256 80.3909 225.925 81.4349 224.91C82.4955 223.896 83.8544 223.389 85.5116 223.389ZM82.5784 233.393C83.2578 234.308 84.2355 234.765 85.5116 234.765C86.7876 234.765 87.7654 234.308 88.4448 233.393C89.1243 232.461 89.464 231.33 89.464 230C89.464 228.669 89.1243 227.547 88.4448 226.632C87.7654 225.701 86.7876 225.235 85.5116 225.235C84.2355 225.235 83.2578 225.701 82.5784 226.632C81.8989 227.547 81.5592 228.669 81.5592 230C81.5592 231.33 81.8989 232.461 82.5784 233.393ZM93.3566 223.713V225.559H97.7067V236.287H99.8196V225.559H104.145V223.713H93.3566ZM117.601 229.251V229.975H108.056C108.089 231.488 108.445 232.669 109.125 233.518C109.804 234.349 110.782 234.765 112.058 234.765C113.781 234.765 114.842 234.116 115.24 232.819H117.377C117.162 233.95 116.59 234.865 115.662 235.563C114.751 236.262 113.549 236.611 112.058 236.611C110.152 236.611 108.661 235.987 107.583 234.74C106.506 233.493 105.968 231.871 105.968 229.875C105.968 227.913 106.506 226.341 107.583 225.16C108.661 223.979 110.135 223.389 112.008 223.389C113.781 223.389 115.148 223.954 116.11 225.085C117.071 226.199 117.568 227.588 117.601 229.251ZM111.958 225.235C110.881 225.235 110.019 225.518 109.373 226.083C108.727 226.632 108.329 227.339 108.18 228.204H115.414C115.347 227.355 115.008 226.649 114.394 226.083C113.781 225.518 112.969 225.235 111.958 225.235ZM123.948 226.607C124.611 225.692 125.597 225.235 126.906 225.235C128.133 225.235 129.077 225.676 129.74 226.557C130.42 227.422 130.759 228.57 130.759 230C130.759 231.43 130.42 232.586 129.74 233.468C129.077 234.333 128.133 234.765 126.906 234.765C125.597 234.765 124.611 234.308 123.948 233.393C123.302 232.478 122.979 231.347 122.979 230C122.979 228.653 123.302 227.522 123.948 226.607ZM122.929 223.713H120.891V241.276H123.004V234.94H123.55C124.379 236.054 125.655 236.611 127.379 236.611C129.069 236.611 130.403 235.996 131.381 234.765C132.375 233.534 132.872 231.946 132.872 230C132.872 228.087 132.375 226.507 131.381 225.26C130.403 224.012 129.069 223.389 127.379 223.389C125.672 223.389 124.371 223.946 123.476 225.06H122.929V223.713ZM147.345 236.287H145.232V230.748H138.297V236.287H136.184V223.713H138.297V228.902H145.232V223.713H147.345V236.287ZM153.542 223.713H151.429V236.287H156.997C158.505 236.287 159.665 235.921 160.477 235.189C161.306 234.441 161.72 233.401 161.72 232.071C161.72 230.757 161.306 229.734 160.477 229.002C159.665 228.27 158.505 227.904 156.997 227.904H153.542V223.713ZM156.699 234.441H153.542V229.701H156.699C157.743 229.701 158.489 229.9 158.936 230.299C159.383 230.698 159.607 231.289 159.607 232.071C159.607 232.852 159.383 233.443 158.936 233.842C158.489 234.241 157.743 234.441 156.699 234.441ZM165.846 223.713H163.734V236.287H165.846V223.713ZM178.304 236.287L175.197 231.023H174.302L171.12 236.287H168.808L172.711 229.85L169.206 223.713H171.443L174.327 228.703H175.221L178.155 223.713H180.367L176.812 229.775L180.69 236.287H178.304ZM195.872 236.287H197.985V223.713H195.872V228.902H188.937V223.713H186.824V236.287H188.937V230.748H195.872V236.287ZM210.048 236.287V234.965H209.502C208.64 236.062 207.339 236.611 205.599 236.611C204.223 236.611 203.13 236.212 202.318 235.414C201.506 234.615 201.1 233.651 201.1 232.52C201.1 231.372 201.497 230.391 202.293 229.576C203.088 228.761 204.29 228.353 205.897 228.353H209.974V227.854C209.974 227.056 209.725 226.424 209.228 225.958C208.731 225.476 207.96 225.235 206.916 225.235C205.093 225.235 204.124 225.842 204.008 227.056H201.895C201.978 225.908 202.467 225.01 203.362 224.362C204.273 223.713 205.441 223.389 206.867 223.389C208.474 223.389 209.734 223.763 210.645 224.511C211.573 225.26 212.037 226.333 212.037 227.73V236.287H210.048ZM206.121 234.765C207.165 234.765 208.068 234.424 208.83 233.742C209.593 233.044 209.974 232.195 209.974 231.197V230.05H206.22C204.215 230.05 203.212 230.848 203.212 232.445C203.212 233.16 203.461 233.725 203.958 234.141C204.472 234.557 205.193 234.765 206.121 234.765ZM216.955 241.276H219.092L226.599 223.713H224.387L220.907 231.996H220.286L216.457 223.713H214.195L219.54 235.114L216.955 241.276ZM237.738 236.287L234.954 230.748H231.2V236.287H229.087V223.713H231.2V228.902H235.004L237.614 223.713H239.826L236.768 229.775L240 236.287H237.738ZM188.566 259.676H191.549L197.14 249.946H197.687V259.676H199.75V247.102H196.668L191.176 256.831H190.629V247.102H188.566V259.676ZM197.985 241.613H196.271C196.188 243.027 195.467 243.734 194.108 243.734C192.717 243.734 192.004 243.027 191.971 241.613H190.256C190.289 242.777 190.646 243.676 191.325 244.308C192.004 244.94 192.932 245.256 194.108 245.256C195.301 245.256 196.237 244.94 196.917 244.308C197.596 243.676 197.952 242.777 197.985 241.613ZM84.3853 253.364V252.64C84.3522 250.977 83.8551 249.588 82.8942 248.474C81.9332 247.343 80.5663 246.777 78.7934 246.777C76.9212 246.777 75.4466 247.368 74.3696 248.549C73.2927 249.73 72.7542 251.301 72.7542 253.264C72.7542 255.26 73.2927 256.881 74.3696 258.129C75.4466 259.376 76.9378 260 78.8431 260C80.3343 260 81.5355 259.651 82.4468 258.952C83.3747 258.253 83.9463 257.339 84.1617 256.208H82.0243C81.6267 257.505 80.5663 258.154 78.8431 258.154C77.5674 258.154 76.5898 257.738 75.9105 256.906C75.2312 256.058 74.875 254.877 74.8418 253.364H84.3853ZM76.159 249.472C76.8052 248.906 77.6668 248.624 78.7437 248.624C79.7544 248.624 80.5663 248.906 81.1793 249.472C81.7924 250.037 82.132 250.744 82.1983 251.592H74.9661C75.1152 250.728 75.5129 250.021 76.159 249.472ZM43.2323 259.676H40.25V247.102H42.3128V256.831H42.8595L48.352 247.102H51.4338V259.676H49.371V249.946H48.8242L43.2323 259.676ZM60.1457 248.948V247.102H70.9318V248.948H66.6074V259.676H64.4949V248.948H60.1457ZM95.6856 259.676L92.579 254.411H91.6843L88.5031 259.676H86.1918L90.0937 253.239L86.5895 247.102H88.8262L91.7092 252.091H92.6039L95.5365 247.102H97.7484L94.1944 253.164L98.0715 259.676H95.6856ZM110.069 259.676H112.182V247.102H110.069V252.291H103.135V247.102H101.023V259.676H103.135V254.137H110.069V259.676ZM117.135 248.649C118.245 247.401 119.752 246.777 121.658 246.777C123.563 246.777 125.063 247.401 126.156 248.649C127.266 249.896 127.821 251.476 127.821 253.389C127.821 255.301 127.266 256.881 126.156 258.129C125.063 259.376 123.563 260 121.658 260C119.752 260 118.245 259.376 117.135 258.129C116.041 256.881 115.494 255.301 115.494 253.389C115.494 251.476 116.041 249.896 117.135 248.649ZM118.651 256.782C119.347 257.696 120.349 258.154 121.658 258.154C122.967 258.154 123.969 257.696 124.665 256.782C125.361 255.85 125.709 254.719 125.709 253.389C125.709 252.058 125.361 250.935 124.665 250.021C123.969 249.089 122.967 248.624 121.658 248.624C120.349 248.624 119.347 249.089 118.651 250.021C117.955 250.935 117.607 252.058 117.607 253.389C117.607 254.719 117.955 255.85 118.651 256.782ZM129.702 257.68V259.676H130.124C131.698 259.676 132.825 259.11 133.504 257.979C134.2 256.848 134.548 254.861 134.548 252.016V248.948H140.04V259.676H142.178V247.102H132.585V251.967C132.585 254.129 132.394 255.626 132.013 256.457C131.632 257.272 131.002 257.68 130.124 257.68H129.702ZM147.109 248.649C148.219 247.401 149.726 246.777 151.632 246.777C153.537 246.777 155.037 247.401 156.13 248.649C157.24 249.896 157.795 251.476 157.795 253.389C157.795 255.301 157.24 256.881 156.13 258.129C155.037 259.376 153.537 260 151.632 260C149.726 260 148.219 259.376 147.109 258.129C146.015 256.881 145.468 255.301 145.468 253.389C145.468 251.476 146.015 249.896 147.109 248.649ZM148.625 256.782C149.32 257.696 150.323 258.154 151.632 258.154C152.941 258.154 153.943 257.696 154.639 256.782C155.335 255.85 155.683 254.719 155.683 253.389C155.683 252.058 155.335 250.935 154.639 250.021C153.943 249.089 152.941 248.624 151.632 248.624C150.323 248.624 149.32 249.089 148.625 250.021C147.929 250.935 147.581 252.058 147.581 253.389C147.581 254.719 147.929 255.85 148.625 256.782ZM161.092 247.102V259.676H163.205V248.948H170.486V247.102H161.092ZM176.282 259.676H173.3V247.102H175.363V256.831H175.91L181.402 247.102H184.484V259.676H182.421V249.946H181.874L176.282 259.676Z" fill="black"/>
<path fill-rule="evenodd" clip-rule="evenodd" d="M160 0H80V40C80 62.0914 97.9086 80 120 80C142.091 80 160 62.0914 160 40V0ZM90 10H120V20H110V30H100V40H90V10ZM110 30H120V40H110V30Z" fill="black"/>
<path fill-rule="evenodd" clip-rule="evenodd" d="M0 100H20V143.636L50 100H70V130H84.375L105 100L145 100V130H175V100H195V180H175V150H145V180H105L84.375 150H70V180H50V136.364L20 180H0V100ZM125 172.727L102.5 140L125 107.273V172.727Z" fill="black"/>
<path d="M200 100H240L240 180H220V120H200V100Z" fill="black"/>
</svg>
